<?xml version="1.0" encoding="UTF-8" standalone="no"?>
<svg viewBox="0 0 199.1 199.8625" xmlns="http://www.w3.org/2000/svg">
<defs>
<linearGradient gradientUnits="userSpaceOnUse" id="linearGradient2184" x1="33.12425" x2="171.82178">
<stop offset="0" stop-color="#781b1b"/>
<stop offset="1" stop-color="#d15d5d"/>
</linearGradient>
<radialGradient cx="328.57144" cy="602.7193" gradientTransform="matrix(1,0,0,.17718,0,495.9268)" gradientUnits="userSpaceOnUse" id="radialGradient13688" r="147.14285">
<stop offset="0" stop-color="#484849"/>
<stop offset="0" stop-color="#434344"/>
<stop offset="1" stop-color="#8f8f90" stop-opacity="0"/>
</radialGradient>
</defs>
<path d="m475.71429,602.7193a147.14285,26.07143 0 1,1 -294.2857,0 147.14285,26.07143 0 1,1 294.2857,0z" fill="url(#radialGradient13688)" transform="matrix(.59257,0,0,1.04592,-93.45041,-491.6415)"/>
<path d="m33.14136,74.27878v.29457c.00629-.09754.02056-.19729.02946-.29457h-.02946zm138.62351,0c.03021.33044.05892.66821.05892,1.00153v-1.00153h-.05892zm.05892,1.00153c-1e-005,15.05224-31.07495,27.26223-69.35594,27.26223-37.68286,1e-005-68.3765-11.82771-69.32649-26.55527v40.67979c-.01508.23376-.01473.45704-.01473.69223 0,.22546.00087.45335.01473.67751 .91151,14.74102 31.61889,26.59945 69.32649,26.59945s68.41498-11.85843 69.32648-26.59945h.02946v-.50077c.00095-.05871 0-.11794 0-.17674s.00094-.11803 0-.17674v-41.90224z" fill="url(#linearGradient2184)"/>
<path d="m475.71429,602.7193a147.14285,26.07143 0 1,1 -294.2857,0 147.14285,26.07143 0 1,1 294.2857,0z" fill="#781b1b" transform="matrix(.47131,0,0,1.04592,-52.3838,-552.9944)"/>
<path d="m136.74033,60.82186-12.36389,1.80474-12.36388,1.80474 5.25411,1.71131-14.94535,7.09694 9.79758,3.19115 14.94534-7.09694 5.2541,1.7113 2.20517-5.11351 2.21682-5.10972z" fill="#f2fdff" fill-opacity=".71171"/>
<path d="m70.40036,92.32401 2.20518-5.11352 2.20517-5.11351 5.25411,1.71131 14.94535-7.09694 9.79758,3.19115-14.94534,7.09694 5.2541,1.7113-12.36388,1.80474-12.35224,1.80853z" fill="#f2fdff" fill-opacity=".71171"/>
<path d="m107.98512,77.93036 13.00237.86723 13.00237.86724-4.35142,2.06631 18.04571,5.87763-8.11429,3.85314-18.04571-5.87763-4.35142,2.06631-4.58898-4.86241-4.59863-4.85783z" fill="#f2fdff" fill-opacity=".71171"/>
<path d="m99.15727,75.05506-4.58898-4.86241-4.58899-4.86241-4.35142,2.06631-18.0457-5.87763-8.11429,3.85314 18.0457,5.87763-4.35142,2.06631 13.00238.86724 12.99272.87182z" fill="#f2fdff" fill-opacity=".71171"/>
</svg>
